<svg version="1.1" id="Capa_1" xmlns="http://www.w3.org/2000/svg" xmlns:xlink="http://www.w3.org/1999/xlink" x="0px" y="0px" viewBox="0 0 14 14" style="enable-background:new 0 0 511 511;" xml:space="preserve" transform="scale(1 -1)" width="14" height="14"><g><path d="M11.384 0.877h-2.192c-0.002 0 -0.005 0 -0.007 0C8.987 0.611 8.671 0.438 8.315 0.438h-0.567c-0.151 -0.267 -0.436 -0.438 -0.748 -0.438s-0.597 0.171 -0.748 0.438H5.685c-0.356 0 -0.672 0.173 -0.869 0.439 -0.002 0 -0.005 0 -0.007 0h-2.192C2.02 0.877 1.534 1.362 1.534 1.959v10.959c0 0.597 0.485 1.082 1.082 1.082h8.767c0.597 0 1.082 -0.485 1.082 -1.082v-10.959c0 -0.597 -0.485 -1.082 -1.082 -1.082zM5.014 1.521c0 -0.37 0.301 -0.671 0.671 -0.671h0.698a0.205 0.205 0 0 0 0.194 -0.137C6.64 0.532 6.811 0.411 7 0.411s0.36 0.121 0.424 0.302A0.205 0.205 0 0 0 7.617 0.849h0.698c0.37 0 0.671 0.301 0.671 0.671V2.192H5.014V1.521zm7.041 11.397c0 0.37 -0.301 0.671 -0.671 0.671h-8.767C2.246 13.589 1.945 13.288 1.945 12.918v-10.959C1.945 1.589 2.246 1.288 2.616 1.288h2.012a1.08 1.08 0 0 0 -0.026 0.233v0.877a0.205 0.205 0 0 0 0.205 0.205h4.384a0.205 0.205 0 0 0 0.205 -0.205v-0.877c0 -0.08 -0.009 -0.158 -0.026 -0.233H11.384c0.37 0 0.671 0.301 0.671 0.671v10.959z"/><path d="M11.384 1.753h-1.315a0.205 0.205 0 0 0 0 0.411H11.178v7.699h-2.205c-0.355 0 -0.644 0.289 -0.644 0.644v1.315c0 0.114 0.092 0.205 0.205 0.205s0.205 -0.092 0.205 -0.205V10.507c0 -0.128 0.104 -0.233 0.233 -0.233h1.915l-2.438 2.438H2.822V2.164h1.11a0.205 0.205 0 0 0 0 -0.411h-1.315a0.205 0.205 0 0 0 -0.205 0.205v10.959a0.205 0.205 0 0 0 0.205 0.205h5.918l0.001 0c0.007 0 0.013 0 0.02 -0.001 0.003 0 0.006 -0.001 0.01 -0.001 0.003 0 0.007 -0.001 0.01 -0.002 0.004 -0.001 0.007 -0.002 0.011 -0.003 0.003 -0.001 0.006 -0.001 0.009 -0.002 0.004 -0.001 0.007 -0.002 0.011 -0.004 0.003 -0.001 0.006 -0.002 0.008 -0.003 0.003 -0.001 0.007 -0.003 0.01 -0.005 0.003 -0.001 0.005 -0.002 0.008 -0.004 0.003 -0.002 0.007 -0.004 0.01 -0.006 0.002 -0.001 0.005 -0.003 0.007 -0.004 0.004 -0.003 0.008 -0.006 0.011 -0.008 0.002 -0.001 0.003 -0.002 0.005 -0.003 0.005 -0.004 0.011 -0.009 0.016 -0.014l2.849 -2.849c0 0 0.001 -0.001 0.001 -0.001 0.006 -0.006 0.011 -0.013 0.017 -0.019a0.202 0.202 0 0 0 0.018 -0.028c0 -0.001 0.001 -0.002 0.001 -0.003 0.004 -0.007 0.007 -0.015 0.01 -0.023 0.001 -0.002 0.001 -0.004 0.002 -0.005 0.003 -0.008 0.005 -0.017 0.007 -0.026l0 -0.001a0.206 0.206 0 0 0 0.003 -0.032c0 -0.002 0 -0.005 0 -0.007V1.959A0.205 0.205 0 0 0 11.384 1.753z"/><path d="M7 0.877c-0.054 0 -0.107 0.022 -0.145 0.06a0.206 0.206 0 0 0 -0.06 0.145 0.206 0.206 0 0 0 0.205 0.205c0.054 0 0.107 -0.022 0.145 -0.06 0.038 -0.038 0.06 -0.091 0.06 -0.145s-0.022 -0.107 -0.06 -0.145a0.206 0.206 0 0 0 -0.145 -0.06z"/><path d="M7.877 4.137h2.192a0.205 0.205 0 0 0 0 -0.411h-2.192a0.205 0.205 0 0 0 0 0.411z"/><path d="M7.219 5.014h2.849a0.205 0.205 0 0 0 0 -0.411h-2.849a0.205 0.205 0 0 0 0 0.411z"/><path d="M10.068 5.479h-2.192a0.205 0.205 0 0 0 0 0.411h2.192a0.205 0.205 0 0 0 0 -0.411z"/><path d="M10.068 6.356h-6.137a0.205 0.205 0 0 0 0 0.411h6.137a0.205 0.205 0 0 0 0 -0.411z"/><path d="M10.068 7.233h-6.137a0.205 0.205 0 0 0 0 0.411h6.137a0.205 0.205 0 0 0 0 -0.411z"/><path d="M10.068 8.11h-6.137a0.205 0.205 0 0 0 0 0.411h6.137a0.205 0.205 0 0 0 0 -0.411z"/><path d="M10.274 9.192a0.205 0.205 0 0 0 -0.205 -0.205h-6.137a0.205 0.205 0 0 0 0 0.411h6.137a0.205 0.205 0 0 0 0.205 -0.205z"/><path d="M7.658 9.863h-1.753a0.205 0.205 0 0 0 0 0.411h1.753a0.205 0.205 0 0 0 0 -0.411z"/><path d="M7.658 10.74h-0.877a0.205 0.205 0 0 0 0 0.411h0.877a0.205 0.205 0 0 0 0 -0.411z"/><path d="M3.726 4.589a0.205 0.205 0 0 0 0.205 0.205H4.822v0.89a0.205 0.205 0 0 0 0.411 0V4.795h0.89a0.205 0.205 0 0 0 0 -0.411H5.233v-0.89a0.205 0.205 0 0 0 -0.411 0V4.384h-0.89a0.205 0.205 0 0 0 -0.205 0.205z"/></g></svg>