<svg version="1.1" id="Capa_1" xmlns="http://www.w3.org/2000/svg" xmlns:xlink="http://www.w3.org/1999/xlink" x="0px" y="0px" width="14px" height="14px" viewBox="0 0 14 14" style="enable-background:new 0 0 365.001 365.001;" xml:space="preserve"><g><g><path d="M13.837 5.973 7.316 0.258a0.479 0.479 0 0 0 -0.632 0L0.163 5.973a0.479 0.479 0 1 0 0.632 0.721l0.505 -0.443v7.131c0 0.265 0.215 0.479 0.479 0.479h10.44a0.479 0.479 0 0 0 0.479 -0.479V6.251l0.505 0.443a0.478 0.478 0 0 0 0.316 0.119 0.48 0.48 0 0 0 0.316 -0.84zm-7.944 6.93v-3.95h2.214v3.95h-2.214zM11.741 5.415v7.488h-2.675v-4.429a0.479 0.479 0 0 0 -0.479 -0.479H5.413a0.479 0.479 0 0 0 -0.479 0.479v4.429H2.259V5.411L7 1.255l4.741 4.155v0.004z"/><path d="M5.926 4.631c0 0.265 0.215 0.479 0.479 0.479h1.189a0.479 0.479 0 1 0 0 -0.959h-1.189a0.479 0.479 0 0 0 -0.479 0.479z"/></g></g></svg>