<svg fill="#000000" width="14px" height="14px" viewBox="0 0 0.63 0.63" version="1.1" preserveAspectRatio="xMidYMid meet" xmlns="http://www.w3.org/2000/svg" xmlns:xlink="http://www.w3.org/1999/xlink"><title>container-line</title><path d="M0.56 0.525H0.07a0.035 0.035 0 0 1 -0.035 -0.035V0.14a0.035 0.035 0 0 1 0.035 -0.035h0.49a0.035 0.035 0 0 1 0.035 0.035v0.35a0.035 0.035 0 0 1 -0.035 0.035ZM0.07 0.14v0.35h0.49V0.14Z" class="clr-i-outline clr-i-outline-path-1"/><path d="M0.158 0.443a0.014 0.014 0 0 1 -0.014 -0.014v-0.228a0.014 0.014 0 0 1 0.028 0v0.228a0.014 0.014 0 0 1 -0.014 0.014Z" class="clr-i-outline clr-i-outline-path-2"/><path d="M0.261 0.443a0.014 0.014 0 0 1 -0.014 -0.014v-0.228a0.014 0.014 0 0 1 0.028 0v0.228a0.014 0.014 0 0 1 -0.014 0.014Z" class="clr-i-outline clr-i-outline-path-3"/><path d="M0.368 0.443a0.014 0.014 0 0 1 -0.014 -0.014v-0.228a0.014 0.014 0 0 1 0.028 0v0.228a0.014 0.014 0 0 1 -0.014 0.014Z" class="clr-i-outline clr-i-outline-path-4"/><path d="M0.473 0.443a0.014 0.014 0 0 1 -0.014 -0.014v-0.228a0.014 0.014 0 0 1 0.028 0v0.228a0.014 0.014 0 0 1 -0.014 0.014Z" class="clr-i-outline clr-i-outline-path-5"/><path x="0" y="0" width="36" height="36" fill-opacity="0" d="M0 0H0.63V0.63H0V0z"/></svg>